<svg id="Ebene_1" data-name="Ebene 1" xmlns="http://www.w3.org/2000/svg" viewBox="0 0 49.24 48.57"><defs><style>.cls-1{fill:#009640;}</style></defs><title>GreenHook</title><path class="cls-1" d="M1.68,24.68c7.7,4.42,9.18,13.86,8,21.77-.38,2.51,3.24,4.71,4.55,1.91a139.89,139.89,0,0,1,14.1-23.3C33.7,17.75,40.08,9.7,48.43,5.67c2.89-1.39.37-5.69-2.51-4.3-8.32,4-14.68,11.71-20.18,18.9A140.55,140.55,0,0,0,9.93,45.85l4.55,1.92C16,37.61,14,26,4.19,20.38c-2.78-1.6-5.29,2.7-2.51,4.3Z" transform="translate(-0.47 -1.1)"/></svg>